# xmcd
#
# Track frame offsets:
#	150
#	19390
#	38002
#	54322
#	72172
#	95265
#	117930
#	145335
#	165585
#	179422
#	195350
#	216105
#	229320
#	248869
#
# Disc length: 3571 seconds
#
# Revision: 1
# Processed by: cddbd v1.4b41PL1 Copyright (c) Steve Scherf et al.
# Submitted via: audiograbber 1.80
#
DISCID=bf0df10e
DTITLE=Willy DeVille - His Greatest Hits
DYEAR=1900
DGENRE=
TTITLE0=Hey! Joe
TTITLE1=Lonely Hunter
TTITLE2=All In The Name Of Love
TTITLE3=Demasiado Corazón
TTITLE4=Bamboo Road
TTITLE5=Jump City
TTITLE6=Spanish Stroll
TTITLE7=Heart And Soul
TTITLE8=Savoir Faire
TTITLE9=Hello My Lover
TTITLE10=I Call Your Name
TTITLE11=Save The Last Dance For Me
TTITLE12=Stand By Me
TTITLE13=Voodoo Charm
EXTD=
EXTT0=
EXTT1=
EXTT2=
EXTT3=
EXTT4=
EXTT5=
EXTT6=
EXTT7=
EXTT8=
EXTT9=
EXTT10=
EXTT11=
EXTT12=
EXTT13=
PLAYORDER=
